<?xml version="1.0" encoding="iso-8859-1"?>
<!-- Generator: Adobe Illustrator 19.0.0, SVG Export Plug-In . SVG Version: 6.00 Build 0)  -->
<svg xmlns="http://www.w3.org/2000/svg" xmlns:xlink="http://www.w3.org/1999/xlink" version="1.1" id="Layer_1" x="0px" y="0px" viewBox="0 0 502.019 502.019" style="enable-background:new 0 0 502.019 502.019;" xml:space="preserve" width="512" height="512">
<g>
	<g>
		<path style="fill:#39B54A;" d="M462.943,184.087c-57.771-33.45-127.456-27.734-178.31,8.94    c6.49-62.362-23.245-125.643-81.016-159.094c-78.431-45.413-52.375,54.222-97.787,132.653S-39.268,272.543,39.163,317.956    c57.771,33.45,127.456,27.734,178.31-8.94c-6.489,62.362,23.245,125.643,81.016,159.094    c78.431,45.413,51.88-54.496,97.293-132.927S541.374,229.499,462.943,184.087z"/>
		<g>
			<path style="fill:#8CC63F;" d="M349.113,170.284c-13.787,31.336-35.419,63.132-64.061,91.774     c-39.716,39.716-85.495,65.962-127.704,76.478c23.283,24.79,56.353,40.28,93.047,40.28c70.49,0,127.633-57.143,127.633-127.633     C378.027,220.476,367.18,192.305,349.113,170.284z"/>
			<path style="fill:#8CC63F;" d="M349.113,170.284c-23.407-28.53-58.936-46.733-98.719-46.733     c-70.49,0-127.633,57.143-127.633,127.633c0,33.797,13.142,64.52,34.586,87.353c42.208-10.516,87.988-36.762,127.704-76.478     C313.693,233.416,335.326,201.62,349.113,170.284z"/>
		</g>
	</g>
	<path d="M501.819,214.298c-1.567-14.045-12.328-26.395-33.866-38.865c-36.139-20.926-78.263-28.125-119.159-20.473   c-17.503-17.923-39.326-30.562-63.194-36.852c-13.759-39.123-40.968-71.982-76.972-92.829   c-21.611-12.514-37.725-15.725-50.706-10.098c-19.474,8.438-25.251,33.314-32.564,64.81c-5.981,25.758-12.762,54.953-28.182,81.584   c-15.402,26.601-37.368,47.08-56.749,65.147c-23.813,22.201-42.621,39.736-40.22,60.944c1.595,14.083,12.382,26.458,33.945,38.943   c26.726,15.475,56.771,23.451,87.159,23.451c10.208,0,20.456-0.908,30.629-2.726c17.82,18.232,40.377,31.064,64.801,37.258   c13.831,38.823,40.965,71.459,76.736,92.172c14.764,8.548,26.949,12.746,37.315,12.746c4.791,0,9.196-0.897,13.284-2.677   c19.392-8.441,25.07-33.272,32.26-64.71c5.918-25.876,12.625-55.205,28.099-81.929c15.455-26.692,37.574-47.178,57.09-65.252   C485.355,252.872,504.178,235.44,501.819,214.298z M337.356,171.969c-13.782,29.266-34.212,57.854-59.375,83.017   c-5.791,5.791-11.744,11.318-17.827,16.561c-4.103-5.72-10.301-15.265-16.619-28.359l8.493-2.123   c5.357-1.339,8.615-6.769,7.275-12.126c-1.34-5.358-6.768-8.618-12.127-7.276l-11.613,2.904   c-3.092-8.199-5.991-17.289-8.437-27.232l7.889-0.376c5.517-0.263,9.775-4.948,9.513-10.464s-4.935-9.782-10.464-9.513   l-10.958,0.522c-1.973-12.295-3.166-25.625-3.215-39.934c9.733-2.616,19.957-4.019,30.504-4.019   C283.7,133.55,315.056,147.479,337.356,171.969z M232.897,292.549l-4.966-7.862c-2.948-4.668-9.125-6.063-13.795-3.114   c-4.67,2.949-6.064,9.125-3.115,13.795l4.992,7.904c-6.321,3.708-12.698,7.11-19.103,10.189l-3.917-9.14   c-2.175-5.076-8.056-7.43-13.131-5.252c-5.076,2.176-7.428,8.054-5.252,13.131l3.934,9.18c-5.954,2.267-11.908,4.234-17.842,5.907   c-18.061-21.25-27.942-48.05-27.942-76.105c0-46.84,27.521-87.369,67.241-106.278c2.081,73.777,31.929,122.043,44.549,139.249   C240.704,287.067,236.817,289.866,232.897,292.549z M44.174,309.302c-15.188-8.794-23.295-16.831-24.094-23.886   c-1.268-11.199,15.069-26.429,33.985-44.065c19.392-18.078,43.524-40.577,60.419-69.755c16.917-29.217,24.367-61.302,30.354-87.082   c5.801-24.979,10.811-46.553,21.035-50.983c6.485-2.81,17.499,0.235,32.732,9.055c28.539,16.525,50.829,41.578,63.921,71.5   c-4.014-0.351-8.06-0.536-12.133-0.536c-11.21,0-22.108,1.357-32.547,3.898l-22.093-41.437c-2.598-4.874-8.656-6.718-13.529-4.12   c-4.873,2.599-6.718,8.656-4.119,13.529l20.415,38.288c-50.252,20.525-85.758,69.927-85.758,127.474   c0,6.808,0.503,13.552,1.48,20.19L65.34,276.82c-5.488,0.611-9.442,5.557-8.831,11.045c0.569,5.113,4.899,8.894,9.926,8.894   c0.37,0,0.744-0.021,1.12-0.063l51.07-5.689c4.098,13.585,10.292,26.474,18.412,38.236   C104.888,332.545,72.433,325.664,44.174,309.302z M292.123,269.129c24.091-24.091,44.145-51.211,58.676-79.234   c11.189,18.353,17.229,39.61,17.229,61.288c0,64.863-52.77,117.633-117.633,117.633c-27.123,0-52.633-9.006-73.362-25.647   C217.182,329.609,257.475,303.776,292.123,269.129z M447.935,260.268c-19.533,18.091-43.844,40.605-60.809,69.904   c-16.987,29.339-24.361,61.583-30.287,87.492c-5.696,24.909-10.616,46.422-20.745,50.831c-6.433,2.801-17.399-0.241-32.596-9.039   c-28.374-16.429-50.606-41.334-63.728-71.056c3.525,0.276,7.068,0.416,10.623,0.416c9.98,0,19.712-1.078,29.095-3.105l20.63,41.704   c1.743,3.525,5.287,5.568,8.971,5.568c1.488,0,3.001-0.334,4.426-1.039c4.95-2.449,6.979-8.447,4.529-13.397l-19.088-38.586   c51.997-19.674,89.07-69.973,89.07-128.777c0-6.998-0.54-13.959-1.594-20.821l37.204,3.77c0.343,0.035,0.683,0.052,1.02,0.052   c5.069,0,9.415-3.841,9.938-8.993c0.557-5.495-3.446-10.4-8.941-10.958l-44.026-4.461c-4.122-13.061-10.178-25.492-18.001-36.821   c32.623-3.667,65.596,3.166,94.305,19.789c15.151,8.772,23.229,16.771,24.011,23.775   C483.182,227.626,466.849,242.752,447.935,260.268z"/>
</g>















</svg>
