<svg xmlns="http://www.w3.org/2000/svg" xml:space="preserve" width="512" height="512" style="enable-background:new 0 0 502.019 502.019" viewBox="0 0 502.019 502.019"><path d="M462.943 184.087c-57.771-33.45-127.456-27.734-178.31 8.94 6.49-62.362-23.245-125.643-81.016-159.094-78.431-45.413-52.375 54.222-97.787 132.653s-145.098 105.957-66.667 151.37c57.771 33.45 127.456 27.734 178.31-8.94-6.489 62.362 23.245 125.643 81.016 159.094 78.431 45.413 51.88-54.496 97.293-132.927s145.592-105.684 67.161-151.096z" style="fill:#39b54a"/><path d="M349.113 170.284c-13.787 31.336-35.419 63.132-64.061 91.774-39.716 39.716-85.495 65.962-127.704 76.478 23.283 24.79 56.353 40.28 93.047 40.28 70.49 0 127.633-57.143 127.633-127.633-.001-30.707-10.848-58.878-28.915-80.899z" style="fill:#8cc63f"/><path d="M349.113 170.284c-23.407-28.53-58.936-46.733-98.719-46.733-70.49 0-127.633 57.143-127.633 127.633 0 33.797 13.142 64.52 34.586 87.353 42.208-10.516 87.988-36.762 127.704-76.478 28.642-28.643 50.275-60.439 64.062-91.775z" style="fill:#8cc63f"/><path d="M501.819 214.298c-1.567-14.045-12.328-26.395-33.866-38.865-36.139-20.926-78.263-28.125-119.159-20.473-17.503-17.923-39.326-30.562-63.194-36.852-13.759-39.123-40.968-71.982-76.972-92.829-21.611-12.514-37.725-15.725-50.706-10.098-19.474 8.438-25.251 33.314-32.564 64.81-5.981 25.758-12.762 54.953-28.182 81.584-15.402 26.601-37.368 47.08-56.749 65.147-23.813 22.201-42.621 39.736-40.22 60.944 1.595 14.083 12.382 26.458 33.945 38.943 26.726 15.475 56.771 23.451 87.159 23.451 10.208 0 20.456-.908 30.629-2.726 17.82 18.232 40.377 31.064 64.801 37.258 13.831 38.823 40.965 71.459 76.736 92.172 14.764 8.548 26.949 12.746 37.315 12.746 4.791 0 9.196-.897 13.284-2.677 19.392-8.441 25.07-33.272 32.26-64.71 5.918-25.876 12.625-55.205 28.099-81.929 15.455-26.692 37.574-47.178 57.09-65.252 23.83-22.07 42.653-39.502 40.294-60.644zm-164.463-42.329c-13.782 29.266-34.212 57.854-59.375 83.017a328.907 328.907 0 0 1-17.827 16.561c-4.103-5.72-10.301-15.265-16.619-28.359l8.493-2.123c5.357-1.339 8.615-6.769 7.275-12.126-1.34-5.358-6.768-8.618-12.127-7.276l-11.613 2.904a238.933 238.933 0 0 1-8.437-27.232l7.889-.376c5.517-.263 9.775-4.948 9.513-10.464s-4.935-9.782-10.464-9.513l-10.958.522c-1.973-12.295-3.166-25.625-3.215-39.934a117.365 117.365 0 0 1 30.504-4.019c33.305-.001 64.661 13.928 86.961 38.418zm-104.459 120.58-4.966-7.862c-2.948-4.668-9.125-6.063-13.795-3.114s-6.064 9.125-3.115 13.795l4.992 7.904a262.906 262.906 0 0 1-19.103 10.189l-3.917-9.14c-2.175-5.076-8.056-7.43-13.131-5.252-5.076 2.176-7.428 8.054-5.252 13.131l3.934 9.18a211.246 211.246 0 0 1-17.842 5.907c-18.061-21.25-27.942-48.05-27.942-76.105 0-46.84 27.521-87.369 67.241-106.278 2.081 73.777 31.929 122.043 44.549 139.249a298.124 298.124 0 0 1-11.653 8.396zM44.174 309.302c-15.188-8.794-23.295-16.831-24.094-23.886-1.268-11.199 15.069-26.429 33.985-44.065 19.392-18.078 43.524-40.577 60.419-69.755 16.917-29.217 24.367-61.302 30.354-87.082 5.801-24.979 10.811-46.553 21.035-50.983 6.485-2.81 17.499.235 32.732 9.055 28.539 16.525 50.829 41.578 63.921 71.5-4.014-.351-8.06-.536-12.133-.536a137.46 137.46 0 0 0-32.547 3.898l-22.093-41.437c-2.598-4.874-8.656-6.718-13.529-4.12-4.873 2.599-6.718 8.656-4.119 13.529l20.415 38.288c-50.252 20.525-85.758 69.927-85.758 127.474 0 6.808.503 13.552 1.48 20.19L65.34 276.82c-5.488.611-9.442 5.557-8.831 11.045.569 5.113 4.899 8.894 9.926 8.894.37 0 .744-.021 1.12-.063l51.07-5.689a136.813 136.813 0 0 0 18.412 38.236c-32.149 3.302-64.604-3.579-92.863-19.941zm247.949-40.173c24.091-24.091 44.145-51.211 58.676-79.234 11.189 18.353 17.229 39.61 17.229 61.288 0 64.863-52.77 117.633-117.633 117.633-27.123 0-52.633-9.006-73.362-25.647 40.149-13.56 80.442-39.393 115.09-74.04zm155.812-8.861c-19.533 18.091-43.844 40.605-60.809 69.904-16.987 29.339-24.361 61.583-30.287 87.492-5.696 24.909-10.616 46.422-20.745 50.831-6.433 2.801-17.399-.241-32.596-9.039-28.374-16.429-50.606-41.334-63.728-71.056 3.525.276 7.068.416 10.623.416 9.98 0 19.712-1.078 29.095-3.105l20.63 41.704a9.999 9.999 0 0 0 13.397 4.529c4.95-2.449 6.979-8.447 4.529-13.397l-19.088-38.586c51.997-19.674 89.07-69.973 89.07-128.777 0-6.998-.54-13.959-1.594-20.821l37.204 3.77c.343.035.683.052 1.02.052 5.069 0 9.415-3.841 9.938-8.993.557-5.495-3.446-10.4-8.941-10.958l-44.026-4.461a137.817 137.817 0 0 0-18.001-36.821c32.623-3.667 65.596 3.166 94.305 19.789 15.151 8.772 23.229 16.771 24.011 23.775 1.24 11.11-15.093 26.236-34.007 43.752z"/></svg>