<svg xmlns="http://www.w3.org/2000/svg" xml:space="preserve" style="enable-background:new 0 0 367.689 367.689" viewBox="0 0 367.689 367.689"><path d="M238.069 195.413c-1.468 2.432-8.837 13.552-10.765 16.639h5.736c1.928-3.087 9.297-14.208 10.765-16.639h-5.736zM227.158 227.052h-7.999c-3.841 8.72-5.945 17.773-3.411 25.765 5.03 15.865 10.215 28.307 12.932 34.467h8c-2.717-6.16-7.902-18.602-12.932-34.467-2.534-7.992-.431-17.045 3.41-25.765zM240.583 171.104c.954 2.852 1.62 5.999 1.702 9.309h1.707c2.191 0 4.302.39 6.285 1.105-.092-2.963-.643-6.97-1.431-9.535a279.677 279.677 0 0 1-8.263-.879zM250.285 181.705l.161-.122-.169-.065.008.187zM335.537 91.255c.128-1.65.216-3.31.216-4.989l.001-.083c-.048-39.211-35.505-71.105-79.113-71.183-2.799.135-55.969 3.101-152.229 34.661v10c96.26-31.56 149.43-34.526 152.229-34.661 41.763.075 76.028 29.336 78.896 66.255zM56.849 49.546l32.563 9.679v-9.389L46.337 37.032c-4.818 1.542-14.402 18.248-14.402 49.235 0 30.988 9.584 47.693 14.402 49.236l1.714-.509c-3.095-8.259-5.603-20.362-5.603-36.212-.001-30.988 9.583-47.694 14.401-49.236zM231.355 302.285h5.995v6.976h-5.995z" style="fill:#fff"/><path d="M256.641 25c-2.799.135-55.969 3.101-152.229 34.661v63.212c96.511 31.644 149.387 34.529 152.226 34.661 41.77-.075 76.042-29.349 78.9-66.276v-.002c-2.869-36.92-37.134-66.181-78.897-66.256zm-9.562 83.491a7.479 7.479 0 0 1-5.161 2.06 7.48 7.48 0 0 1-5.442-2.338l-31.85-33.567a7.5 7.5 0 0 1 10.881-10.324l31.85 33.566a7.5 7.5 0 0 1-.278 10.603zm30.029 0a7.477 7.477 0 0 1-5.161 2.059 7.478 7.478 0 0 1-5.442-2.338l-31.849-33.567a7.5 7.5 0 1 1 10.882-10.324l31.849 33.566a7.501 7.501 0 0 1-.279 10.604zm30.03 0a7.479 7.479 0 0 1-5.161 2.06 7.48 7.48 0 0 1-5.442-2.338l-31.85-33.567a7.5 7.5 0 1 1 10.881-10.324l31.85 33.566a7.5 7.5 0 0 1-.278 10.603z" style="fill:#ffa6bb"/><path d="M215.508 64.322a7.5 7.5 0 1 0-10.881 10.324l31.85 33.567a7.48 7.48 0 0 0 5.442 2.338 7.5 7.5 0 0 0 5.439-12.663l-31.85-33.566zM245.538 64.322a7.5 7.5 0 1 0-10.882 10.324l31.849 33.567a7.481 7.481 0 0 0 5.442 2.338 7.5 7.5 0 0 0 5.44-12.662l-31.849-33.567zM275.566 64.322a7.5 7.5 0 1 0-10.881 10.324l31.85 33.567a7.48 7.48 0 0 0 5.442 2.338 7.5 7.5 0 0 0 5.439-12.663l-31.85-33.566z" style="fill:#7f3960"/><path d="M42.447 98.781c0 15.85 2.509 27.954 5.603 36.212l41.36-12.295.001-63.473-32.563-9.679c-4.817 1.542-14.401 18.248-14.401 49.235z" style="fill:#ba82aa"/><path d="M31.935 86.267c0 30.988 9.584 47.693 14.402 49.236l1.714-.51 41.36-12.295.001-63.473v-9.389L46.337 37.032c-4.818 1.542-14.402 18.248-14.402 49.235zM243.992 227.052z" style="fill:none"/><path d="M31.935 86.267c0 30.988 9.584 47.693 14.402 49.236l1.714-.51 41.36-12.295.001-63.473v-9.389L46.337 37.032c-4.818 1.542-14.402 18.248-14.402 49.235zM335.537 91.258c.128-1.651.216-3.312.216-4.991l.001-.083C335.706 46.972 300.25 15.078 256.641 15c-2.799.135-55.969 3.101-152.229 34.661v73.212c96.511 31.644 149.387 34.529 152.226 34.661 41.769-.075 76.041-29.349 78.899-66.276z" style="fill:none"/><path d="M268.023 260.922c8.335-37.144 13.73-58.595 18.625-74.043 2.574-8.123 5.678-15.513 8.95-22.131-11.922 4.996-24.768 8.224-39.117 7.786-.061-.002-2.857-.117-7.634-.551.761 2.479 1.298 6.572 1.417 9.53 8.343 3.003 14.403 11.826 14.403 22.219 0 12.101-8.215 22.076-18.685 23.209-.61.073-1.271.11-1.99.11h-16.834c-3.841 8.72-5.944 17.773-3.41 25.765 5.029 15.865 10.215 28.307 12.932 34.467h13.82c.912-.078 11.959-1.568 17.523-26.361z" style="fill:#ba82aa"/><path d="M335.537 91.258c.128-1.651.216-3.312.216-4.991l.001-.083C335.706 46.972 300.25 15.078 256.641 15c-2.799.135-55.969 3.101-152.229 34.661v73.212c96.511 31.644 149.387 34.529 152.226 34.661 41.769-.075 76.041-29.349 78.899-66.276zM31.935 86.267c0 30.988 9.584 47.693 14.402 49.236l1.714-.51 41.36-12.295.001-63.473v-9.389L46.337 37.032c-4.818 1.542-14.402 18.248-14.402 49.235z" style="fill:none"/><path d="M233.04 212.052h10.952c3.023 0 5.675-3.888 5.675-8.32s-2.652-8.319-5.675-8.319h-.187c-1.468 2.432-8.837 13.552-10.765 16.639z" style="fill:#ffa6bb"/><path d="M243.992 212.052c3.023 0 5.675-3.888 5.675-8.32s-2.652-8.319-5.675-8.319h-5.923c-1.468 2.432-8.837 13.552-10.765 16.639h16.688zM335.537 91.258c.128-1.651.216-3.312.216-4.991l.001-.083C335.706 46.972 300.25 15.078 256.641 15c-2.799.135-55.969 3.101-152.229 34.661v73.212c96.511 31.644 149.387 34.529 152.226 34.661 41.769-.075 76.041-29.349 78.899-66.276zM31.935 86.267c0 30.988 9.584 47.693 14.402 49.236l1.714-.51 41.36-12.295.001-63.473v-9.389L46.337 37.032c-4.818 1.542-14.402 18.248-14.402 49.235z" style="fill:none"/><path d="M250.5 287.285c.912-.08 11.959-1.569 17.523-26.363 8.335-37.144 13.73-58.595 18.625-74.043 2.574-8.123 5.678-15.513 8.95-22.131-11.922 4.996-24.768 8.224-39.117 7.786-.061-.002-2.857-.117-7.634-.551-2.317-.21-5.094-.495-8.264-.879.955 2.852 1.62 5.999 1.703 9.309h1.706c2.186 0 4.292.388 6.271 1.1 8.343 3.003 14.403 11.826 14.403 22.219 0 12.101-8.215 22.076-18.685 23.209a18.46 18.46 0 0 1-1.99.11h-24.833c-3.841 8.72-5.945 17.773-3.411 25.765 5.03 15.865 10.214 28.307 12.932 34.467H250.5z" style="fill:none"/><path d="M237.35 302.285h7.833v6.976h-7.833z" style="fill:#ffa6bb"/><path d="M252.684 324.261a7.5 7.5 0 0 0 7.5-7.5v-17.132c7.516-3.795 17.446-13.012 22.475-35.422 8.234-36.696 13.533-57.787 18.289-72.796 7.462-23.551 20.028-40.662 26.541-48.463 14.459-15.15 23.24-34.948 23.266-56.588l.001-.092C350.754 38.699 308.463 0 256.481 0c-.091 0-.182.001-.272.005-2.287.083-56.812 2.422-159.417 36.376L49.169 22.225a7.476 7.476 0 0 0-2.137-.311c-19.759 0-30.097 32.374-30.097 64.353 0 31.98 10.338 64.354 30.097 64.354.724 0 1.443-.105 2.137-.311l47.622-14.157c57.011 18.866 99.169 27.969 125.78 32.35 2.447 3.475 7.102 11.568 3.139 18.362-1.337 2.294-3.172 5.058-5.296 8.258-10.428 15.711-26.186 39.454-18.964 62.229 6.302 19.875 12.75 34.429 14.906 39.104v20.305a7.5 7.5 0 0 0 7.5 7.5h6.914v15.445c0 15.429 12.553 27.983 27.984 27.983h76.98a7.5 7.5 0 0 0 0-15h-76.979c-7.16-.001-12.984-5.825-12.984-12.983v-15.445h6.913zM89.412 59.225l-.001 63.473-41.36 12.295-1.714.51c-4.818-1.542-14.402-18.248-14.402-49.236 0-30.987 9.584-47.692 14.402-49.235l43.075 12.804v9.389zm14.999 63.647V49.66C200.672 18.101 253.842 15.135 256.641 15c43.609.078 79.065 31.972 79.113 71.184l-.001.083c0 1.68-.088 3.34-.216 4.991-2.858 36.927-37.13 66.201-78.9 66.276-2.839-.133-55.715-3.018-152.226-34.662zm133.658 72.541h5.923c3.023 0 5.675 3.888 5.675 8.319 0 4.432-2.652 8.32-5.675 8.32h-16.688c1.927-3.087 9.297-14.207 10.765-16.639zm-9.389 91.872c-2.717-6.16-7.902-18.602-12.932-34.467-2.534-7.992-.431-17.045 3.411-25.765h24.833c.671 0 1.335-.039 1.99-.11 10.469-1.133 18.685-11.108 18.685-23.209 0-10.393-6.06-19.216-14.403-22.219a18.469 18.469 0 0 0-6.271-1.1h-1.706c-.083-3.311-.748-6.457-1.703-9.309 3.17.385 5.946.669 8.264.879 4.776.434 7.573.549 7.634.551 14.349.438 27.195-2.79 39.117-7.786-3.272 6.618-6.376 14.008-8.95 22.131-4.894 15.448-10.29 36.899-18.625 74.043-5.563 24.793-16.611 26.283-17.523 26.363H228.68zm8.67 21.976h-5.995v-6.976h13.828v6.976h-7.833z" style="fill:#7f3960"/></svg>