<?xml version="1.0" encoding="iso-8859-1"?>
<!-- Generator: Adobe Illustrator 19.1.0, SVG Export Plug-In . SVG Version: 6.00 Build 0)  -->
<svg version="1.1" id="Capa_1" xmlns="http://www.w3.org/2000/svg" xmlns:xlink="http://www.w3.org/1999/xlink" x="0px" y="0px"
	 viewBox="0 0 367.689 367.689" style="enable-background:new 0 0 367.689 367.689;" xml:space="preserve">
<g>
	<path style="fill:#FFFFFF;" d="M238.069,195.413c-1.468,2.432-8.837,13.552-10.765,16.639h5.736
		c1.928-3.087,9.297-14.208,10.765-16.639H238.069z"/>
	<path style="fill:#FFFFFF;" d="M227.158,227.052h-7.999c-3.841,8.72-5.945,17.773-3.411,25.765
		c5.03,15.865,10.215,28.307,12.932,34.467h8c-2.717-6.16-7.902-18.602-12.932-34.467
		C221.214,244.825,223.317,235.772,227.158,227.052z"/>
	<path style="fill:#FFFFFF;" d="M240.583,171.104c0.954,2.852,1.62,5.999,1.702,9.309h1.707c2.191,0,4.302,0.39,6.285,1.105
		c-0.092-2.963-0.643-6.97-1.431-9.535C246.529,171.772,243.753,171.488,240.583,171.104z"/>
	<path style="fill:#FFFFFF;" d="M250.285,181.705l0.161-0.122c-0.057-0.021-0.112-0.044-0.169-0.065
		C250.279,181.579,250.283,181.645,250.285,181.705z"/>
	<path style="fill:#FFFFFF;" d="M335.537,91.255c0.128-1.65,0.216-3.31,0.216-4.989c0-0.027,0-0.055,0.001-0.083
		C335.706,46.972,300.249,15.078,256.641,15c-2.799,0.135-55.969,3.101-152.229,34.661v10C200.672,28.101,253.842,25.135,256.641,25
		C298.404,25.075,332.669,54.336,335.537,91.255z"/>
	<path style="fill:#FFFFFF;" d="M56.849,49.546l32.563,9.679v-9.389L46.337,37.032c-4.818,1.542-14.402,18.248-14.402,49.235
		c0,30.988,9.584,47.693,14.402,49.236l1.714-0.509c-3.095-8.259-5.603-20.362-5.603-36.212
		C42.447,67.794,52.031,51.088,56.849,49.546z"/>
	<rect x="231.355" y="302.285" style="fill:#FFFFFF;" width="5.995" height="6.976"/>
	<path style="fill:#FFA6BB;" d="M256.641,25c-2.799,0.135-55.969,3.101-152.229,34.661l0,63.212
		c96.511,31.644,149.387,34.529,152.226,34.661c41.77-0.075,76.042-29.349,78.9-66.276c0,0,0-0.001,0-0.002
		C332.669,54.336,298.404,25.075,256.641,25z M247.079,108.491c-1.451,1.376-3.308,2.06-5.161,2.06
		c-1.986,0-3.967-0.784-5.442-2.338l-31.85-33.567c-2.851-3.004-2.726-7.752,0.278-10.603c3.005-2.852,7.752-2.726,10.603,0.279
		l31.85,33.566C250.208,100.893,250.084,105.64,247.079,108.491z M277.108,108.491c-1.451,1.376-3.308,2.059-5.161,2.059
		c-1.986,0-3.968-0.784-5.442-2.338l-31.849-33.567c-2.851-3.005-2.726-7.752,0.279-10.603c3.005-2.85,7.753-2.725,10.603,0.279
		l31.849,33.566C280.238,100.893,280.113,105.64,277.108,108.491z M307.138,108.491c-1.451,1.376-3.308,2.06-5.161,2.06
		c-1.986,0-3.967-0.784-5.442-2.338l-31.85-33.567c-2.851-3.004-2.727-7.752,0.278-10.603c3.005-2.852,7.752-2.726,10.603,0.279
		l31.85,33.566C310.267,100.893,310.142,105.64,307.138,108.491z"/>
	<path style="fill:#7F3960;" d="M215.508,64.322c-2.851-3.005-7.597-3.13-10.603-0.279c-3.005,2.851-3.129,7.598-0.278,10.603
		l31.85,33.567c1.475,1.554,3.456,2.338,5.442,2.338c1.853,0,3.71-0.683,5.161-2.06c3.005-2.851,3.129-7.598,0.278-10.603
		L215.508,64.322z"/>
	<path style="fill:#7F3960;" d="M245.538,64.322c-2.85-3.005-7.598-3.13-10.603-0.279c-3.005,2.851-3.129,7.598-0.279,10.603
		l31.849,33.567c1.475,1.554,3.457,2.338,5.442,2.338c1.853,0,3.71-0.683,5.161-2.059c3.005-2.851,3.129-7.598,0.279-10.603
		L245.538,64.322z"/>
	<path style="fill:#7F3960;" d="M275.566,64.322c-2.851-3.005-7.597-3.13-10.603-0.279c-3.005,2.851-3.129,7.598-0.278,10.603
		l31.85,33.567c1.475,1.554,3.456,2.338,5.442,2.338c1.853,0,3.71-0.683,5.161-2.06c3.005-2.851,3.129-7.598,0.278-10.603
		L275.566,64.322z"/>
	<path style="fill:#BA82AA;" d="M42.447,98.781c0,15.85,2.509,27.954,5.603,36.212l41.36-12.295l0.001-63.473l-32.563-9.679
		C52.031,51.088,42.447,67.794,42.447,98.781z"/>
	<path style="fill:none;" d="M31.935,86.267c0,30.988,9.584,47.693,14.402,49.236l1.714-0.51l41.36-12.295l0.001-63.473v-9.389
		L46.337,37.032C41.519,38.574,31.935,55.28,31.935,86.267z"/>
	<path style="fill:none;" d="M243.992,227.052c0.719,0,1.38-0.038,1.99-0.11C245.327,227.013,244.663,227.052,243.992,227.052z"/>
	<path style="fill:none;" d="M31.935,86.267c0,30.988,9.584,47.693,14.402,49.236l1.714-0.51l41.36-12.295l0.001-63.473v-9.389
		L46.337,37.032C41.519,38.574,31.935,55.28,31.935,86.267z"/>
	<path style="fill:none;" d="M335.537,91.258c0.128-1.651,0.216-3.312,0.216-4.991c0-0.027,0-0.055,0.001-0.083
		C335.706,46.972,300.25,15.078,256.641,15c-2.799,0.135-55.969,3.101-152.229,34.661v10l0,63.212
		c96.511,31.644,149.387,34.529,152.226,34.661C298.407,157.459,332.679,128.185,335.537,91.258z"/>
	<path style="fill:#BA82AA;" d="M268.023,260.922c8.335-37.144,13.73-58.595,18.625-74.043c2.574-8.123,5.678-15.513,8.95-22.131
		c-11.922,4.996-24.768,8.224-39.117,7.786c-0.061-0.002-2.857-0.117-7.634-0.551l0,0c0.761,2.479,1.298,6.572,1.417,9.53
		c8.343,3.003,14.403,11.826,14.403,22.219c0,12.101-8.215,22.076-18.685,23.209c-0.61,0.073-1.271,0.11-1.99,0.11h-16.834
		c-3.841,8.72-5.944,17.773-3.41,25.765c5.029,15.865,10.215,28.307,12.932,34.467h13.82
		C251.412,287.205,262.459,285.715,268.023,260.922z"/>
	<path style="fill:none;" d="M335.537,91.258c0.128-1.651,0.216-3.312,0.216-4.991c0-0.027,0-0.055,0.001-0.083
		C335.706,46.972,300.25,15.078,256.641,15c-2.799,0.135-55.969,3.101-152.229,34.661v10l0,63.212
		c96.511,31.644,149.387,34.529,152.226,34.661C298.407,157.459,332.679,128.185,335.537,91.258z"/>
	<path style="fill:none;" d="M31.935,86.267c0,30.988,9.584,47.693,14.402,49.236l1.714-0.51l41.36-12.295l0.001-63.473v-9.389
		L46.337,37.032C41.519,38.574,31.935,55.28,31.935,86.267z"/>
	<path style="fill:#FFA6BB;" d="M233.04,212.052h10.952c3.023,0,5.675-3.888,5.675-8.32c0-4.432-2.652-8.319-5.675-8.319h-0.187
		C242.337,197.845,234.968,208.965,233.04,212.052z"/>
	<path style="fill:none;" d="M243.992,212.052c3.023,0,5.675-3.888,5.675-8.32c0-4.432-2.652-8.319-5.675-8.319h-0.187h-5.736
		c-1.468,2.432-8.837,13.552-10.765,16.639h5.736H243.992z"/>
	<path style="fill:none;" d="M335.537,91.258c0.128-1.651,0.216-3.312,0.216-4.991c0-0.027,0-0.055,0.001-0.083
		C335.706,46.972,300.25,15.078,256.641,15c-2.799,0.135-55.969,3.101-152.229,34.661v10l0,63.212
		c96.511,31.644,149.387,34.529,152.226,34.661C298.407,157.459,332.679,128.185,335.537,91.258z"/>
	<path style="fill:none;" d="M31.935,86.267c0,30.988,9.584,47.693,14.402,49.236l1.714-0.51l41.36-12.295l0.001-63.473v-9.389
		L46.337,37.032C41.519,38.574,31.935,55.28,31.935,86.267z"/>
	<path style="fill:none;" d="M250.5,287.285c0.912-0.08,11.959-1.569,17.523-26.363c8.335-37.144,13.73-58.595,18.625-74.043
		c2.574-8.123,5.678-15.513,8.95-22.131c-11.922,4.996-24.768,8.224-39.117,7.786c-0.061-0.002-2.857-0.117-7.634-0.551
		c-2.317-0.21-5.094-0.495-8.264-0.879c0.955,2.852,1.62,5.999,1.703,9.309h1.706c2.186,0,4.292,0.388,6.271,1.1
		c8.343,3.003,14.403,11.826,14.403,22.219c0,12.101-8.215,22.076-18.685,23.209c-0.655,0.071-1.319,0.11-1.99,0.11h-16.834h-7.999
		c-3.841,8.72-5.945,17.773-3.411,25.765c5.03,15.865,10.214,28.307,12.932,34.467h8H250.5z"/>
	<rect x="237.35" y="302.285" style="fill:#FFA6BB;" width="7.833" height="6.976"/>
	<path style="fill:#7F3960;" d="M252.684,324.261c4.142,0,7.5-3.358,7.5-7.5v-17.132c7.516-3.795,17.446-13.012,22.475-35.422
		c8.234-36.696,13.533-57.787,18.289-72.796c7.462-23.551,20.028-40.662,26.541-48.463c14.459-15.15,23.24-34.948,23.266-56.588
		c0.001-0.03,0.001-0.061,0.001-0.092C350.754,38.699,308.463,0,256.481,0c-0.091,0-0.182,0.001-0.272,0.005
		c-2.287,0.083-56.812,2.422-159.417,36.376L49.169,22.225c-0.694-0.207-1.414-0.311-2.137-0.311
		c-19.759,0-30.097,32.374-30.097,64.353c0,31.98,10.338,64.354,30.097,64.354c0.724,0,1.443-0.105,2.137-0.311l47.622-14.157
		c57.011,18.866,99.169,27.969,125.78,32.35c2.447,3.475,7.102,11.568,3.139,18.362c-1.337,2.294-3.172,5.058-5.296,8.258
		c-10.428,15.711-26.186,39.454-18.964,62.229c6.302,19.875,12.75,34.429,14.906,39.104v20.305c0,4.142,3.358,7.5,7.5,7.5h6.914
		v15.445c0,15.429,12.553,27.983,27.984,27.983h76.98c4.142,0,7.5-3.358,7.5-7.5s-3.358-7.5-7.5-7.5h-76.979
		c-7.16-0.001-12.984-5.825-12.984-12.983v-15.445H252.684z M89.412,59.225l-0.001,63.473l-41.36,12.295l-1.714,0.51
		c-4.818-1.542-14.402-18.248-14.402-49.236c0-30.987,9.584-47.692,14.402-49.235l43.075,12.804V59.225z M104.411,122.872l0-63.212
		v-10C200.672,18.101,253.842,15.135,256.641,15c43.609,0.078,79.065,31.972,79.113,71.184c-0.001,0.027-0.001,0.055-0.001,0.083
		c0,1.68-0.088,3.34-0.216,4.991c-2.858,36.927-37.13,66.201-78.9,66.276C253.798,157.401,200.922,154.516,104.411,122.872z
		 M238.069,195.413h5.736h0.187c3.023,0,5.675,3.888,5.675,8.319c0,4.432-2.652,8.32-5.675,8.32H233.04h-5.736
		C229.231,208.965,236.601,197.845,238.069,195.413z M228.68,287.285c-2.717-6.16-7.902-18.602-12.932-34.467
		c-2.534-7.992-0.431-17.045,3.411-25.765h7.999h16.834c0.671,0,1.335-0.039,1.99-0.11c10.469-1.133,18.685-11.108,18.685-23.209
		c0-10.393-6.06-19.216-14.403-22.219c-1.979-0.712-4.085-1.1-6.271-1.1h-1.706c-0.083-3.311-0.748-6.457-1.703-9.309
		c3.17,0.385,5.946,0.669,8.264,0.879c4.776,0.434,7.573,0.549,7.634,0.551c14.349,0.438,27.195-2.79,39.117-7.786
		c-3.272,6.618-6.376,14.008-8.95,22.131c-4.894,15.448-10.29,36.899-18.625,74.043c-5.563,24.793-16.611,26.283-17.523,26.363
		h-13.82H228.68z M237.35,309.261h-5.995v-6.976h5.995h7.833v6.976H237.35z"/>
</g>
<g>
</g>
<g>
</g>
<g>
</g>
<g>
</g>
<g>
</g>
<g>
</g>
<g>
</g>
<g>
</g>
<g>
</g>
<g>
</g>
<g>
</g>
<g>
</g>
<g>
</g>
<g>
</g>
<g>
</g>
</svg>
