<svg xmlns="http://www.w3.org/2000/svg" xml:space="preserve" style="enable-background:new 0 0 228.804 228.804" viewBox="0 0 228.804 228.804"><path d="M184.475 161.189c-2.368-3.731-19.724-30.767-34.558-45.068-12.376-11.883-30.9-12.227-33-12.227a7.718 7.718 0 0 0-.571.023h-4.491c-1.984 0-19.761.338-32.763 12.042C63.05 130.416 45.3 159.575 44.058 161.63c-9.403 14.867-15.166 24.536-15.166 35.286 0 19.371 14.193 31.888 36.158 31.888h98.711c21.959 0 36.148-12.529 36.148-31.92 0-10.845-5.777-20.5-15.205-35.353a8.142 8.142 0 0 0-.229-.342zm-20.714 52.615H65.05c-7.902 0-21.158-2.194-21.158-16.888 0-6.279 4.126-13.489 12.885-27.334l.087-.14c.175-.29 17.631-29.146 32.267-42.336 8.925-8.034 22.597-8.187 22.73-8.188h5.08c.143 0 .284-.004.426-.012 2.441.092 14.739.907 22.152 8.024 14.283 13.772 32.324 42.347 32.505 42.634.081.129.165.254.253.376 9.316 14.698 12.633 21.018 12.633 26.942-.001 13.986-11.502 16.922-21.149 16.922zM78.198 85.731c16.929 0 30.189-18.831 30.189-42.87C108.388 18.827 95.127 0 78.198 0 61.271 0 48.011 18.827 48.011 42.861c0 24.04 13.26 42.87 30.187 42.87zm0-70.731c7.184 0 15.189 11.442 15.189 27.861 0 16.424-8.006 27.87-15.189 27.87S63.01 59.285 63.01 42.861C63.011 26.442 71.015 15 78.198 15zM38.664 137.296c2.951 0 5.77-.607 8.413-1.82 13.162-6.12 16.827-25.327 8.34-43.731-6.585-14.252-18.767-23.827-30.316-23.827-2.954 0-5.777.609-8.401 1.817-13.18 6.099-16.857 25.31-8.368 43.746 6.585 14.244 18.774 23.814 30.33 23.815h.002zm-16.712-30.099c-5.076-11.024-3.635-21.683 1.033-23.842.639-.294 1.33-.437 2.115-.437 4.71 0 12.162 5.298 16.697 15.113 5.076 11.008 3.635 21.668-1.011 23.828-.642.294-1.336.438-2.123.438-4.716-.001-12.177-5.297-16.711-15.1zM150.591 85.731c16.923 0 30.18-18.831 30.18-42.87C180.771 18.827 167.514 0 150.591 0c-16.939 0-30.207 18.827-30.207 42.861 0 24.04 13.268 42.87 30.207 42.87zm0-70.731c7.18 0 15.18 11.442 15.18 27.861 0 16.424-8 27.87-15.18 27.87-7.192 0-15.207-11.446-15.207-27.87 0-16.419 8.015-27.861 15.207-27.861zM212.104 69.737c-2.617-1.212-5.447-1.827-8.411-1.827-11.532 0-23.71 9.578-30.299 23.827-8.525 18.396-4.863 37.61 8.368 43.756 2.609 1.197 5.429 1.804 8.38 1.804 11.559 0 23.745-9.572 30.324-23.822 8.496-18.423 4.821-37.636-8.362-43.738zm-5.258 37.453c-4.53 9.812-11.987 15.106-16.704 15.106-.788 0-1.482-.143-2.093-.423-4.696-2.181-6.141-12.835-1.043-23.835 4.544-9.827 11.988-15.129 16.687-15.129.781 0 1.47.143 2.107.438 4.684 2.17 6.126 12.828 1.046 23.843z"/></svg>