<svg xmlns="http://www.w3.org/2000/svg" xml:space="preserve" style="enable-background:new 0 0 460 460" viewBox="0 0 460 460"><path d="M244.06 0h-67.14v40h27.14v80h40z" style="fill:#1398ad"/><path d="M95.98 40h27.14V0H55.98v120h40z" style="fill:#3fc3d8"/><path d="M334.021 177.56V338c0 45.215-36.785 82-82 82s-82-36.785-82-82v-44.567c47.832-9.354 84.039-51.582 84.039-102.103V120h-60v71.33c0 24.28-19.75 44.04-44.04 44.04v60c-6.84 0-13.524-.671-19.999-1.937V338c0 67.271 54.729 122 122 122s122-54.729 122-122V177.559A59.72 59.72 0 0 1 354.02 181a59.712 59.712 0 0 1-19.999-3.44z" style="fill:#0b389c"/><path d="M354.02 141c-11.028 0-19.999-8.972-19.999-20s8.971-20 19.999-20V61c-33.084 0-59.999 26.916-59.999 60 0 26.073 16.722 48.304 40 56.56A59.712 59.712 0 0 0 354.02 181v-40z" style="fill:#3fc3d8"/><path d="M414.02 121c0-33.084-26.916-60-60-60v40c11.028 0 20 8.972 20 20s-8.973 20-20 20v40c7.012 0 13.741-1.22 20.001-3.441 23.278-8.256 39.999-30.487 39.999-56.559z" style="fill:#1398ad"/><path d="M334.021 121c0 11.028 8.971 20 19.999 20 11.028 0 20-8.972 20-20s-8.973-20-20-20c-11.028 0-19.999 8.972-19.999 20z" style="fill:#6be0f4"/><path d="M150.02 235.37c-24.29 0-44.04-19.76-44.04-44.04V120h-60v71.33c0 50.522 36.208 92.751 84.041 102.103a104.127 104.127 0 0 0 19.999 1.937v-60z" style="fill:#4370d9"/></svg>