<svg xmlns="http://www.w3.org/2000/svg" width="48" height="48" fill="none"><path fill="#333" fill-rule="evenodd" d="M27.185 36.649A4 4 0 1 0 29 40.024L29.224 36h1.552L31 40.023a4 4 0 1 0 1.815-3.374L31 4.01 30 4.066l-.998-.056-1.817 32.639ZM30.665 34 30 22.058 29.335 34h1.33ZM31 18a1 1 0 1 1-2 0 1 1 0 0 1 2 0Zm-8 22a2 2 0 1 1 4 0 2 2 0 0 1-4 0Zm12-2a2 2 0 1 0 0 4 2 2 0 0 0 0-4Z" clip-rule="evenodd"/><path fill="#333" d="M16 14V4s-3.433 2.06-3.938 9.997C11.992 15.099 12.895 16 14 16a2 2 0 0 0 2-2Z"/><path fill="#333" fill-rule="evenodd" d="M13 18.5a1.5 1.5 0 0 1 3 0v.793l-3 3V18.5Zm0 5.207v2.586l3-3v-2.586l-3 3Zm0 6.586v-2.586l3-3v2.586l-3 3Zm0 1.414V42.5a1.5 1.5 0 0 0 3 0V28.707l-3 3Z" clip-rule="evenodd"/></svg>