<?xml version="1.0" encoding="iso-8859-1"?>
<!-- Generator: Adobe Illustrator 19.0.0, SVG Export Plug-In . SVG Version: 6.00 Build 0)  -->
<svg version="1.1" id="Layer_1" xmlns="http://www.w3.org/2000/svg" xmlns:xlink="http://www.w3.org/1999/xlink" x="0px" y="0px"
	 viewBox="0 0 511.998 511.998" style="enable-background:new 0 0 511.998 511.998;" xml:space="preserve">
<g>
	<path style="fill:#7E8488;" d="M484.421,317.804c25.13,25.247,25.13,66.112,0,91.36c-15.501,15.501-36.873,21.372-56.836,17.967
		c3.405,19.963-2.466,41.335-17.967,56.836c-25.247,25.13-66.112,25.13-91.36,0c-25.13-25.247-25.13-66.112,0-91.36
		c4.345-4.345,9.159-7.868,14.326-10.686l-76.564-76.564l49.79-49.79l76.564,76.564c2.818-5.167,6.341-9.981,10.686-14.326
		C418.309,292.674,459.174,292.674,484.421,317.804z"/>
	<path style="fill:#7E8488;" d="M256.022,205.777l-49.79,49.79l-76.564-76.564c-2.818,5.167-6.341,9.981-10.686,14.326
		c-25.247,25.13-66.112,25.13-91.36,0c-25.13-25.247-25.13-66.112,0-91.36c15.501-15.501,36.873-21.372,56.836-17.967
		c-3.405-19.963,2.466-41.335,17.967-56.836c25.247-25.13,66.112-25.13,91.36,0c25.13,25.247,25.13,66.112,0,91.36
		c-4.345,4.345-9.159,7.868-14.326,10.686L256.022,205.777z"/>
</g>
<path style="fill:#AFB6BB;" d="M484.421,101.969c25.13,25.247,25.13,66.112,0,91.36c-25.247,25.13-66.112,25.13-91.36,0
	c-4.345-4.345-7.868-9.159-10.686-14.326l-76.564,76.564l-49.79,49.79l-76.564,76.564c5.167,2.818,9.981,6.341,14.326,10.686
	c25.13,25.247,25.13,66.112,0,91.36c-25.247,25.13-66.112,25.13-91.36,0c-15.501-15.501-21.372-36.873-17.967-56.836
	c-19.963,3.405-41.335-2.466-56.836-17.967c-25.13-25.247-25.13-66.112,0-91.36c25.247-25.13,66.112-25.13,91.36,0
	c4.345,4.345,7.868,9.159,10.686,14.326l76.564-76.564l49.79-49.79l76.564-76.564c-5.167-2.818-9.981-6.341-14.326-10.686
	c-25.13-25.247-25.13-66.112,0-91.36c25.247-25.13,66.112-25.13,91.36,0c15.501,15.501,21.372,36.873,17.967,56.836
	C447.549,80.597,468.921,86.469,484.421,101.969z"/>
<g>
	<path style="fill:#6E7377;" d="M256.022,305.356l76.564,76.564c-5.167,2.818-9.981,6.341-14.326,10.686
		c-25.13,25.247-25.13,66.112,0,91.36c25.247,25.13,66.112,25.13,91.36,0c15.501-15.501,21.372-36.873,17.967-56.836
		L280.917,280.461L256.022,305.356z"/>
	<path style="fill:#6E7377;" d="M84.459,84.003c-19.963-3.405-41.335,2.466-56.836,17.967c-25.13,25.247-25.13,66.112,0,91.36
		c25.247,25.13,66.112,25.13,91.36,0c4.345-4.346,7.868-9.159,10.686-14.326l76.564,76.564l24.895-24.895L84.459,84.003z"/>
</g>
<path style="fill:#9EA5AA;" d="M409.619,27.167c-25.247-25.13-66.112-25.13-91.36,0c-25.13,25.247-25.13,66.112,0,91.36
	c4.345,4.346,9.159,7.868,14.326,10.686l-76.564,76.564l-24.895,24.895l-24.895,24.895l-76.564,76.564
	c-2.818-5.167-6.341-9.981-10.686-14.326c-25.247-25.13-66.112-25.13-91.36,0c-25.13,25.247-25.13,66.112,0,91.36
	c13.993,13.994,32.765,20.063,50.972,18.621l176.099-173.547l172.91-170.403C430.95,63.92,425.076,42.625,409.619,27.167z"/>
<path d="M386.81,312.01c-2.094,2.095-4.057,4.325-5.88,6.677l-39.531-39.532l-12.456,12.454l55.506,55.506l5.637-10.336
	c2.494-4.574,5.583-8.717,9.167-12.301c21.762-21.661,57.173-21.661,78.904-0.028c21.661,21.762,21.661,57.171,0.014,78.919
	c-12.78,12.781-31.141,18.578-49.126,15.512l-12.253-2.09l2.089,12.253c3.067,17.982-2.733,36.347-15.498,49.112
	c-21.763,21.661-57.171,21.661-78.904,0.029c-21.66-21.762-21.66-57.171-0.014-78.919c3.597-3.597,7.741-6.686,12.315-9.182
	l10.335-5.637l-55.505-55.505l-12.456,12.454l39.534,39.534c-2.357,1.825-4.591,3.792-6.692,5.894
	c-28.48,28.614-28.48,75.172,0.028,103.814c14.305,14.238,33.095,21.359,51.888,21.359c18.797,0,37.597-7.124,51.913-21.373
	c14.154-14.154,21.802-33.492,21.466-53.336c19.802,0.318,39.184-7.315,53.35-21.48c28.481-28.614,28.481-75.172-0.028-103.815
	C461.999,283.516,415.44,283.514,386.81,312.01z"/>
<path d="M125.187,199.99c2.094-2.095,4.057-4.325,5.88-6.678l42.351,42.352l12.456-12.454l-58.323-58.323l-5.637,10.333
	c-2.495,4.575-5.586,8.719-9.169,12.303c-21.762,21.66-57.17,21.659-78.904,0.028c-21.66-21.762-21.66-57.171-0.014-78.919
	c12.781-12.78,31.143-18.58,49.127-15.512l12.254,2.09l-2.09-12.254c-3.067-17.981,2.73-36.345,15.497-49.112
	c21.761-21.661,57.171-21.661,78.904-0.028c21.661,21.762,21.661,57.171,0.014,78.919c-3.597,3.597-7.741,6.686-12.315,9.182
	l-10.335,5.637l64.219,64.218l12.456-12.454l-48.248-48.247c2.357-1.825,4.59-3.792,6.692-5.894
	c28.481-28.614,28.481-75.172-0.028-103.814c-28.61-28.482-75.17-28.482-103.8,0.013C82.019,35.528,74.372,54.865,74.709,74.71
	c-19.89-0.337-39.185,7.316-53.351,21.48c-28.48,28.614-28.48,75.172,0.028,103.814C49.998,228.485,96.558,228.485,125.187,199.99z"
	/>
<g>
	
		<rect x="52.032" y="126.261" transform="matrix(0.7071 0.7071 -0.7071 0.7071 119.5467 -0.8827)" style="fill:#FFFFFF;" width="17.614" height="35.207"/>
	
		<rect x="84.807" y="126.823" transform="matrix(0.7071 -0.7071 0.7071 0.7071 -65.9097 112.1396)" style="fill:#FFFFFF;" width="35.206" height="17.614"/>
</g>
<rect x="442.332" y="350.529" transform="matrix(-0.7071 -0.7071 0.7071 -0.7071 509.8338 947.4448)" width="17.614" height="35.206"/>
<rect x="391.979" y="367.562" transform="matrix(-0.7071 0.7071 -0.7071 -0.7071 965.3341 352.884)" width="35.207" height="17.614"/>
<path d="M193.312,380.932l187.619-187.619c1.825,2.356,3.792,4.59,5.894,6.692c28.614,28.481,75.173,28.481,103.814-0.028
	c28.481-28.614,28.481-75.172-0.014-103.8c-14.156-14.155-33.499-21.799-53.336-21.466c0.336-19.845-7.315-39.185-21.481-53.35
	c-28.614-28.48-75.173-28.48-103.814,0.028c-28.48,28.614-28.48,75.172,0.014,103.8c2.095,2.095,4.326,4.058,6.678,5.88
	L199.982,249.772l-68.915,68.915c-1.826-2.356-3.792-4.591-5.895-6.692c-28.614-28.48-75.173-28.48-103.814,0.028
	c-28.479,28.614-28.479,75.172,0.014,103.8c14.155,14.154,33.463,21.787,53.337,21.466c-0.337,19.844,7.313,39.184,21.48,53.35
	c14.304,14.237,33.09,21.358,51.882,21.358c18.802,0,37.608-7.128,51.933-21.386c28.481-28.614,28.481-75.172-0.014-103.8
	C197.894,384.717,195.664,382.755,193.312,380.932z M187.548,478.157c-21.762,21.661-57.173,21.66-78.918,0.014
	c-12.782-12.781-18.58-31.146-15.512-49.126l2.09-12.254l-12.254,2.09c-17.983,3.066-36.347-2.733-49.113-15.498
	c-21.66-21.762-21.66-57.171-0.028-78.904c21.763-21.661,57.174-21.66,78.918-0.014c3.597,3.597,6.688,7.741,9.183,12.317
	l5.637,10.333l219.564-219.564l-10.335-5.637c-4.575-2.495-8.718-5.584-12.302-9.168c-21.66-21.762-21.66-57.171-0.028-78.904
	c21.763-21.661,57.174-21.66,78.918-0.014c12.781,12.781,18.581,31.146,15.514,49.127l-2.089,12.253l12.253-2.09
	c17.982-3.065,36.345,2.733,49.112,15.498c21.661,21.762,21.661,57.171,0.028,78.904c-21.762,21.661-57.173,21.66-78.918,0.014
	c-3.598-3.598-6.686-7.741-9.181-12.315l-5.637-10.336L164.883,384.449l10.335,5.637c4.575,2.495,8.718,5.584,12.302,9.168
	C209.181,421.015,209.181,456.424,187.548,478.157z"/>
<rect x="350.534" y="52.014" transform="matrix(-0.7071 -0.7071 0.7071 -0.7071 585.4416 364.1404)" width="35.206" height="17.614"/>
<rect x="358.771" y="93.609" transform="matrix(0.7071 0.7071 -0.7071 0.7071 182.6563 -236.1398)" width="35.206" height="17.614"/>
<g>
	
		<rect x="126.256" y="442.369" transform="matrix(0.7071 0.7071 -0.7071 0.7071 361.1647 30.4228)" style="fill:#FFFFFF;" width="35.206" height="17.614"/>
	
		<rect x="118.031" y="400.776" transform="matrix(-0.7071 -0.7071 0.7071 -0.7071 -58.077 795.1105)" style="fill:#FFFFFF;" width="35.206" height="17.614"/>
</g>
<g>
</g>
<g>
</g>
<g>
</g>
<g>
</g>
<g>
</g>
<g>
</g>
<g>
</g>
<g>
</g>
<g>
</g>
<g>
</g>
<g>
</g>
<g>
</g>
<g>
</g>
<g>
</g>
<g>
</g>
</svg>
