<svg xmlns="http://www.w3.org/2000/svg" viewBox="0 0 511.998 511.998" style="enable-background:new 0 0 511.998 511.998" xml:space="preserve"><path style="fill:#7e8488" d="M484.421 317.804c25.13 25.247 25.13 66.112 0 91.36-15.501 15.501-36.873 21.372-56.836 17.967 3.405 19.963-2.466 41.335-17.967 56.836-25.247 25.13-66.112 25.13-91.36 0-25.13-25.247-25.13-66.112 0-91.36 4.345-4.345 9.159-7.868 14.326-10.686l-76.564-76.564 49.79-49.79 76.564 76.564c2.818-5.167 6.341-9.981 10.686-14.326 25.249-25.131 66.114-25.131 91.361-.001zM256.022 205.777l-49.79 49.79-76.564-76.564c-2.818 5.167-6.341 9.981-10.686 14.326-25.247 25.13-66.112 25.13-91.36 0-25.13-25.247-25.13-66.112 0-91.36 15.501-15.501 36.873-21.372 56.836-17.967-3.405-19.963 2.466-41.335 17.967-56.836 25.247-25.13 66.112-25.13 91.36 0 25.13 25.247 25.13 66.112 0 91.36-4.345 4.345-9.159 7.868-14.326 10.686l76.563 76.565z"/><path style="fill:#afb6bb" d="M484.421 101.969c25.13 25.247 25.13 66.112 0 91.36-25.247 25.13-66.112 25.13-91.36 0-4.345-4.345-7.868-9.159-10.686-14.326l-76.564 76.564-49.79 49.79-76.564 76.564c5.167 2.818 9.981 6.341 14.326 10.686 25.13 25.247 25.13 66.112 0 91.36-25.247 25.13-66.112 25.13-91.36 0-15.501-15.501-21.372-36.873-17.967-56.836-19.963 3.405-41.335-2.466-56.836-17.967-25.13-25.247-25.13-66.112 0-91.36 25.247-25.13 66.112-25.13 91.36 0 4.345 4.345 7.868 9.159 10.686 14.326l76.564-76.564 49.79-49.79 76.564-76.564c-5.167-2.818-9.981-6.341-14.326-10.686-25.13-25.247-25.13-66.112 0-91.36 25.247-25.13 66.112-25.13 91.36 0 15.501 15.501 21.372 36.873 17.967 56.836 19.964-3.405 41.336 2.467 56.836 17.967z"/><path style="fill:#6e7377" d="m256.022 305.356 76.564 76.564c-5.167 2.818-9.981 6.341-14.326 10.686-25.13 25.247-25.13 66.112 0 91.36 25.247 25.13 66.112 25.13 91.36 0 15.501-15.501 21.372-36.873 17.967-56.836l-146.67-146.669-24.895 24.895zM84.459 84.003c-19.963-3.405-41.335 2.466-56.836 17.967-25.13 25.247-25.13 66.112 0 91.36 25.247 25.13 66.112 25.13 91.36 0 4.345-4.346 7.868-9.159 10.686-14.326l76.564 76.564 24.895-24.895L84.459 84.003z"/><path style="fill:#9ea5aa" d="M409.619 27.167c-25.247-25.13-66.112-25.13-91.36 0-25.13 25.247-25.13 66.112 0 91.36 4.345 4.346 9.159 7.868 14.326 10.686l-76.564 76.564-24.895 24.895-24.895 24.895-76.564 76.564c-2.818-5.167-6.341-9.981-10.686-14.326-25.247-25.13-66.112-25.13-91.36 0-25.13 25.247-25.13 66.112 0 91.36 13.993 13.994 32.765 20.063 50.972 18.621l176.099-173.547 172.91-170.403c3.348-19.916-2.526-41.211-17.983-56.669z"/><path d="M386.81 312.01a70.765 70.765 0 0 0-5.88 6.677l-39.531-39.532-12.456 12.454 55.506 55.506 5.637-10.336c2.494-4.574 5.583-8.717 9.167-12.301 21.762-21.661 57.173-21.661 78.904-.028 21.661 21.762 21.661 57.171.014 78.919-12.78 12.781-31.141 18.578-49.126 15.512l-12.253-2.09 2.089 12.253c3.067 17.982-2.733 36.347-15.498 49.112-21.763 21.661-57.171 21.661-78.904.029-21.66-21.762-21.66-57.171-.014-78.919 3.597-3.597 7.741-6.686 12.315-9.182l10.335-5.637-55.505-55.505-12.456 12.454 39.534 39.534a70.369 70.369 0 0 0-6.692 5.894c-28.48 28.614-28.48 75.172.028 103.814 14.305 14.238 33.095 21.359 51.888 21.359 18.797 0 37.597-7.124 51.913-21.373 14.154-14.154 21.802-33.492 21.466-53.336 19.802.318 39.184-7.315 53.35-21.48 28.481-28.614 28.481-75.172-.028-103.815-28.614-28.477-75.173-28.479-103.803.017zM125.187 199.99a70.652 70.652 0 0 0 5.88-6.678l42.351 42.352 12.456-12.454-58.323-58.323-5.637 10.333c-2.495 4.575-5.586 8.719-9.169 12.303-21.762 21.66-57.17 21.659-78.904.028-21.66-21.762-21.66-57.171-.014-78.919 12.781-12.78 31.143-18.58 49.127-15.512l12.254 2.09-2.09-12.254c-3.067-17.981 2.73-36.345 15.497-49.112 21.761-21.661 57.171-21.661 78.904-.028 21.661 21.762 21.661 57.171.014 78.919-3.597 3.597-7.741 6.686-12.315 9.182l-10.335 5.637 64.219 64.218 12.456-12.454-48.248-48.247a70.492 70.492 0 0 0 6.692-5.894c28.481-28.614 28.481-75.172-.028-103.814-28.61-28.482-75.17-28.482-103.8.013C82.019 35.528 74.372 54.865 74.709 74.71c-19.89-.337-39.185 7.316-53.351 21.48-28.48 28.614-28.48 75.172.028 103.814 28.612 28.481 75.172 28.481 103.801-.014z"/><path transform="rotate(45.001 60.84 143.864)" style="fill:#fff" d="M52.032 126.261h17.614v35.207H52.032z"/><path transform="rotate(-45.001 102.409 135.632)" style="fill:#fff" d="M84.807 126.823h35.206v17.614H84.807z"/><path d="m444.92 386.813-12.455-12.455 24.894-24.894 12.455 12.455zM428.263 370.15l-24.895 24.894-12.455-12.455 24.895-24.895zM193.312 380.932l187.619-187.619a70.616 70.616 0 0 0 5.894 6.692c28.614 28.481 75.173 28.481 103.814-.028 28.481-28.614 28.481-75.172-.014-103.8-14.156-14.155-33.499-21.799-53.336-21.466.336-19.845-7.315-39.185-21.481-53.35-28.614-28.48-75.173-28.48-103.814.028-28.48 28.614-28.48 75.172.014 103.8a70.494 70.494 0 0 0 6.678 5.88L199.982 249.772l-68.915 68.915a70.502 70.502 0 0 0-5.895-6.692c-28.614-28.48-75.173-28.48-103.814.028-28.479 28.614-28.479 75.172.014 103.8 14.155 14.154 33.463 21.787 53.337 21.466-.337 19.844 7.313 39.184 21.48 53.35 14.304 14.237 33.09 21.358 51.882 21.358 18.802 0 37.608-7.128 51.933-21.386 28.481-28.614 28.481-75.172-.014-103.8a70.892 70.892 0 0 0-6.678-5.879zm-5.764 97.225c-21.762 21.661-57.173 21.66-78.918.014-12.782-12.781-18.58-31.146-15.512-49.126l2.09-12.254-12.254 2.09c-17.983 3.066-36.347-2.733-49.113-15.498-21.66-21.762-21.66-57.171-.028-78.904 21.763-21.661 57.174-21.66 78.918-.014a53.846 53.846 0 0 1 9.183 12.317l5.637 10.333 219.564-219.564-10.335-5.637c-4.575-2.495-8.718-5.584-12.302-9.168-21.66-21.762-21.66-57.171-.028-78.904 21.763-21.661 57.174-21.66 78.918-.014 12.781 12.781 18.581 31.146 15.514 49.127l-2.089 12.253 12.253-2.09c17.982-3.065 36.345 2.733 49.112 15.498 21.661 21.762 21.661 57.171.028 78.904-21.762 21.661-57.173 21.66-78.918.014-3.598-3.598-6.686-7.741-9.181-12.315l-5.637-10.336-219.567 219.566 10.335 5.637c4.575 2.495 8.718 5.584 12.302 9.168 21.661 21.761 21.661 57.17.028 78.903z"/><path d="m374.358 79.499-24.894-24.894 12.455-12.455 24.894 24.894zM370.152 83.738l24.895 24.894-12.455 12.455-24.895-24.894z"/><path transform="rotate(45.001 143.865 451.176)" style="fill:#fff" d="M126.256 442.369h35.206v17.614h-35.206z"/><path transform="rotate(-134.999 135.634 409.586)" style="fill:#fff" d="M118.031 400.776h35.206v17.614h-35.206z"/></svg>