<svg xmlns="http://www.w3.org/2000/svg" viewBox="0 0 489.5 489.5" style="enable-background:new 0 0 489.5 489.5" xml:space="preserve"><path style="fill:#94a4a4" d="M317.8 359.8H195.4c-22.2 0-40.3-18.1-40.3-40.3V170.1c0-22.2 18.1-40.3 40.3-40.3h244.8c22.2 0 40.3 18.1 40.3 40.3v149.4c0 22.2-18.1 40.3-40.3 40.3H301.5"/><path style="fill:#2c2f33" d="M195.4 368.8h244.8c27.2 0 49.3-22.1 49.3-49.4V170.1c0-27.2-22.1-49.4-49.3-49.4H195.4c-27.2 0-49.3 22.1-49.3 49.4v149.4c-.1 27.2 22.1 49.3 49.3 49.3zm-31.2-198.7c0-17.2 14-31.2 31.2-31.2h244.8c17.2 0 31.2 14 31.2 31.2v149.4c0 17.2-14 31.2-31.2 31.2H195.4c-17.2 0-31.2-14-31.2-31.2V170.1z"/><path style="fill:#2c2f33" d="M195.7 319.8c1.8 2 4.3 3.1 6.8 3.1 2.1 0 4.3-.7 6-2.3l78.3-69 25.4 19.7c1.6 1.3 3.6 1.9 5.6 1.9s3.9-.6 5.6-1.9l26.2-20.3 77.5 69.5c1.7 1.6 3.9 2.3 6 2.3 2.5 0 5-1 6.8-3 3.3-3.7 3-9.5-.7-12.8l-75-67.3 74.6-57.9c4-3.1 4.7-8.8 1.6-12.7-3.1-4-8.8-4.7-12.7-1.6l-109.9 85.3-25.8-20.1-83.9-65.1c-4-3.1-9.6-2.4-12.7 1.6-3.1 4-2.4 9.6 1.6 12.7l75.3 58.5-75.7 66.7c-3.9 3.3-4.2 9-.9 12.7zM117.6 253.9c5 0 9.1-4.1 9.1-9.1s-4.1-9.1-9.1-9.1h-72c-5 0-9.1 4.1-9.1 9.1s4.1 9.1 9.1 9.1h72zM9.1 206h108.5c5 0 9.1-4.1 9.1-9.1s-4.1-9.1-9.1-9.1H9.1c-5 0-9.1 4.1-9.1 9.1.1 5 4.1 9.1 9.1 9.1zM126.7 292.7c0-5-4.1-9.1-9.1-9.1H70.2c-5 0-9.1 4.1-9.1 9.1s4.1 9.1 9.1 9.1h47.4c5 0 9.1-4.1 9.1-9.1z"/></svg>