<svg xmlns="http://www.w3.org/2000/svg" width="569.696" height="569.695" style="enable-background:new 0 0 569.696 569.695" xml:space="preserve"><path d="M171.087 344.757c13.885 27.654 40.22 48.194 72.561 53.751l4.16.717-2.659 58.169c-1.453-.373-3.079-.603-4.599-.909-1.616-.334-3.185-.707-4.887-.965-4.944-.746-10.146-1.263-15.816-1.263-7.688 0-14.784 1.032-21.305 2.812a134.413 134.413 0 0 1 9.323 3.634c2.515 1.1 4.954 2.257 7.296 3.452 1.616-.105 3.156-.335 4.839-.335 5.47 0 10.509.469 15.223 1.233a87.86 87.86 0 0 1 4.887.966c1.559.345 3.117.698 4.58 1.109 13.818 3.901 23.763 10.604 30.476 16.734a71.08 71.08 0 0 1 4.886 4.896c2.831 3.155 4.609 5.728 5.556 7.2.431.669.727 1.176.804 1.31l.182.335c1.147-.765 2.275-1.521 3.528-2.257.421-.248.765-.525 1.195-.765 1.912-1.09 4.093-2.056 6.226-3.051 6.942-13.225 29.644-47.755 80.611-58.561l.125-2.601.334-7.163c-53.751 10.682-79.771 46.665-88.73 62.481-1.425-1.778-3.309-3.844-5.412-5.977-1.587-1.616-3.385-3.261-5.384-4.953-1.53-1.291-3.05-2.592-4.829-3.873l-5.001-71.154 4.466-.583c43.203-5.595 77.141-38.499 85.402-79.904-46.684-20.311-80.038-65.446-83.566-118.642-4.848-.727-9.773-1.214-14.812-1.214-6.091 0-12.02.631-17.815 1.673 6.149 30.15 9.505 56.629 9.505 73.449-.011 58.114-34.149 68.633-81.35 70.249zM440.607 422.748l.525 7.354.182 2.592c72.044 14.258 98.312 76.787 106.163 102.769a111.085 111.085 0 0 1 5.078 5.145c3.031 3.289 5.775 6.636 8.128 9.954h.162l-1.1-5.67c-.219-1.14-21.075-104.204-119.138-122.144z"/><path d="M284.958 197.513c.077 1.673.115 3.356.259 5.011 4.093 47.554 33.88 87.775 75.4 106.833 1.511.698 3.002 1.425 4.552 2.065 1.491.621 3.05 1.109 4.57 1.673a131.028 131.028 0 0 0 13.78 4.236l2.945-63.657-62.95-95.491 66.736 36.644 8.032-93.693h25.149l4.399 133.474 72.771-21.621-68.726 87.277 1.387 19.459c62.787-9.112 111.211-63.141 111.211-128.415 0-71.642-58.283-129.916-129.916-129.916s-129.916 58.283-129.916 129.916c0 .411.058.813.058 1.214.02 1.683.182 3.328.259 4.991zM40.272 326.358c16.256 8.357 39.904 9.113 64.805 9.123l1.827-25.647-68.726-87.276 72.771 21.621 4.398-133.483h25.149l8.033 93.684 66.737-36.644-62.95 95.491.688 14.784 2.458 55.492.201 6.693h1.147c1.664 0 3.337-2.381 4.963-2.4 1.74-.019 3.433-1.253 5.125-1.291 46.34-1.032 75.964-9.715 75.964-61.419 0-18.035-3.242-43.653-8.932-71.671-.315-1.559-.631-3.27-.965-4.848-.325-1.54-.669-3.174-1.014-4.724C213.038 107.128 172.025 0 129.319 0 70.987 0 15.773 199.76 15.773 274.52c.01 26.785 7.785 43.242 24.499 51.838z"/><path d="m392.775 324.092-.22 4.791-4.294 92.718-.334 7.287-.115 2.457-3.079 66.526c15.004 10.566 24.365 24.088 28.678 31.365 4.59-3.127 12.785-7.746 24.375-11.752l-6.158-86.417-.182-2.524-.517-7.258-6.483-90.996-.344-4.763-.345-4.762-1.673-23.505 52.393-66.536-55.788 16.572-4.513-136.601h-7.124l-8.54 99.574-45.795-25.13 43.434 65.876-3.165 68.276-.211 4.802zM140.258 219.832l-8.53-99.574h-7.124l-4.504 136.61-55.788-16.572 52.393 66.536-.134 1.846-1.913 26.784-.344 4.781-.344 4.781-7.755 108.841c12.335-3.242 26-5.116 41.167-5.116 1.358 0 2.61.124 3.949.152l-4.81-103.867-.22-4.781-.22-4.781-3.471-74.894 43.433-65.876-45.785 25.13z"/><path d="M538.565 541.008c-13.072-12.039-30.82-22.166-49.477-22.166-16.619 0-30.294 2.343-41.243 5.451-1.73.487-3.423.994-5.021 1.52-1.501.498-2.983.995-4.36 1.512a107.374 107.374 0 0 0-9.619 4.121c-9.133 4.456-13.694 8.415-13.79 8.511l-1.176 1.052-3.576 3.193-1.53-3.193-1.224-2.562c-.058-.115-1.425-2.897-4.103-7-3.748-5.757-10.155-14.134-19.259-21.669-1.415-1.166-2.869-2.323-4.418-3.433-1.559-1.128-3.155-2.237-4.849-3.28-9.954-6.12-22.261-10.557-36.997-10.557-20.722 0-35.955 6.292-46.569 13.416-.028.02-.066.038-.096.058a72.418 72.418 0 0 0-4.695 3.452 75.536 75.536 0 0 0-4.781 4.159c-1.578 1.492-3.012 2.945-4.217 4.294-4.083 4.571-6.005 7.966-6.062 8.07l-4.858 8.865-3.777-9.391c-.488-1.205-6.015-14.401-19.517-28.783-1.368-1.453-2.878-2.926-4.418-4.398-1.492-1.425-3.108-2.831-4.762-4.256-9.142-7.831-20.817-15.3-35.515-20.827-2.075-.774-4.16-1.549-6.35-2.237-2.629-.832-5.431-1.53-8.243-2.219-7.019-1.73-14.506-3.069-22.682-3.758-1.606-.134-3.337-.144-4.992-.229-1.521-.086-3.041-.172-4.6-.211-1.492-.038-2.859-.2-4.389-.2-15.673 0-29.453 2.228-41.903 5.785-1.549.439-3.108.86-4.609 1.349-1.74.563-3.519 1.07-5.192 1.692-61.476 22.796-81.873 83.46-86.846 102.556H559.039c-1.616-5.402-5.643-12.23-11.37-19.125a98.32 98.32 0 0 0-9.104-9.562z"/></svg>