<svg xmlns="http://www.w3.org/2000/svg" viewBox="0 0 512 512" style="enable-background:new 0 0 512 512" xml:space="preserve"><path d="M494.933 318.797H394.639v-.793c0-9.425-7.641-17.067-17.067-17.067H215.625c-9.425 0-17.067 7.641-17.067 17.067v.793h-65.146v-22.966c0-10.614 8.636-19.25 19.25-19.25h275.895c29.437 0 53.383-23.948 53.383-53.385 0-29.435-23.948-53.383-53.383-53.383H152.662c-10.615 0-19.25-8.636-19.25-19.25v-.639c30.654-7.652 53.435-35.411 53.435-68.401 0-38.873-31.627-70.5-70.501-70.5s-70.5 31.627-70.5 70.5c0 32.99 22.781 60.749 53.433 68.401v.639c0 29.435 23.948 53.383 53.383 53.383h275.895c10.615 0 19.25 8.636 19.25 19.25 0 10.615-8.636 19.251-19.25 19.251H152.662c-29.437 0-53.383 23.948-53.383 53.383v22.966H17.067C7.641 318.797 0 326.439 0 335.864v130.187c0 9.425 7.641 17.067 17.067 17.067h181.492v.793c0 9.425 7.641 17.067 17.067 17.067h161.948c9.425 0 17.067-7.641 17.067-17.067v-.793h100.294c9.425 0 17.067-7.641 17.067-17.067V335.864c-.002-9.425-7.643-17.067-17.069-17.067zM79.978 81.524c0-20.052 16.315-36.367 36.367-36.367 20.053 0 36.368 16.315 36.368 36.367 0 20.053-16.315 36.368-36.368 36.368s-36.367-16.315-36.367-36.368zm-45.845 367.46v-96.053h164.425v96.053H34.133zm326.373 17.861H232.691V335.071h127.815v48.82h-10.695c-9.425 0-17.067 7.641-17.067 17.067s7.641 17.067 17.067 17.067h10.695v48.82zm117.361-17.861H394.64v-30.96h10.695c9.425 0 17.067-7.641 17.067-17.067s-7.641-17.067-17.067-17.067H394.64v-30.96h83.227v96.054z"/><circle cx="69.632" cy="400.954" r="11.116"/><circle cx="116.349" cy="400.954" r="11.116"/><circle cx="163.066" cy="400.954" r="11.116"/></svg>