<?xml version="1.0" encoding="iso-8859-1"?>
<!-- Generator: Adobe Illustrator 19.0.0, SVG Export Plug-In . SVG Version: 6.00 Build 0)  -->
<svg version="1.1" id="Layer_1" xmlns="http://www.w3.org/2000/svg" xmlns:xlink="http://www.w3.org/1999/xlink" x="0px" y="0px"
	 viewBox="0 0 512 512" style="enable-background:new 0 0 512 512;" xml:space="preserve">
<path d="M494.933,318.797H394.639v-0.793c0-9.425-7.641-17.067-17.067-17.067H215.625c-9.425,0-17.067,7.641-17.067,17.067v0.793
	h-65.146v-22.966c0-10.614,8.636-19.25,19.25-19.25h275.895c29.437,0,53.383-23.948,53.383-53.385
	c0-29.435-23.948-53.383-53.383-53.383H152.662c-10.615,0-19.25-8.636-19.25-19.25v-0.639c30.654-7.652,53.435-35.411,53.435-68.401
	c0-38.873-31.627-70.5-70.501-70.5s-70.5,31.627-70.5,70.5c0,32.99,22.781,60.749,53.433,68.401v0.639
	c0,29.435,23.948,53.383,53.383,53.383h275.895c10.615,0,19.25,8.636,19.25,19.25c0,10.615-8.636,19.251-19.25,19.251H152.662
	c-29.437,0-53.383,23.948-53.383,53.383v22.966H17.067C7.641,318.797,0,326.439,0,335.864v130.187
	c0,9.425,7.641,17.067,17.067,17.067h181.492v0.793c0,9.425,7.641,17.067,17.067,17.067h161.948c9.425,0,17.067-7.641,17.067-17.067
	v-0.793h100.294c9.425,0,17.067-7.641,17.067-17.067V335.864C512,326.439,504.359,318.797,494.933,318.797z M79.978,81.524
	c0-20.052,16.315-36.367,36.367-36.367c20.053,0,36.368,16.315,36.368,36.367c0,20.053-16.315,36.368-36.368,36.368
	C96.292,117.892,79.978,101.577,79.978,81.524z M34.133,448.984v-96.053h164.425v96.053H34.133z M360.506,466.845H232.691v-0.793
	V335.864v-0.793h127.815c0,53.237,0,42.937,0,48.82h-10.695c-9.425,0-17.067,7.641-17.067,17.067s7.641,17.067,17.067,17.067h10.695
	v48.027V466.845z M477.867,448.984h-83.227v-30.96h10.695c9.425,0,17.067-7.641,17.067-17.067s-7.641-17.067-17.067-17.067h-10.695
	v-30.96h83.227V448.984z"/>
<circle cx="69.632" cy="400.954" r="11.116"/>
<circle cx="116.349" cy="400.954" r="11.116"/>
<circle cx="163.066" cy="400.954" r="11.116"/>
<g>
</g>
<g>
</g>
<g>
</g>
<g>
</g>
<g>
</g>
<g>
</g>
<g>
</g>
<g>
</g>
<g>
</g>
<g>
</g>
<g>
</g>
<g>
</g>
<g>
</g>
<g>
</g>
<g>
</g>
</svg>
