<svg xmlns="http://www.w3.org/2000/svg" width="868.3" height="868.301" style="enable-background:new 0 0 868.3 868.301" xml:space="preserve"><path d="M539.5 377.4c-31.4-22.6-68.5-33.899-105.6-33.899-37.101 0-74.2 11.3-105.601 34-40.5 29.199-77.1 80.9-77.1 172.5 0 85.4 15.3 147.6 33 191.1 24.8 60.701 54.5 85.1 54.5 85.1l21.5-43.699 1.6-3.301c1.4 3.5 2.8 6.801 4.2 10.102 28.2 63.398 67.8 79 67.8 79s40.3-15.701 68.601-79.701c1.3-3 2.6-6.1 3.899-9.299l1.5 3.1 21.9 43.9s29.5-24.4 54.2-85C601.6 697.801 616.8 635.5 616.8 550.1c.101-91.799-36.7-143.5-77.3-172.7zM481 568.6h-94c-9.7 0-17.5-7.799-17.5-17.5 0-9.699 7.8-17.5 17.5-17.5h29v-50c-21-6-37-23.1-37-43.299 0-25.201 24.5-45.701 54.6-45.701 30.101 0 54.301 20.4 54.301 45.701 0 20-14.9 37-36.9 43.199v50.1h30c9.7 0 17.5 7.801 17.5 17.5A17.456 17.456 0 0 1 481 568.6z"/><path d="M337.6 40.4C327.401 25.5 301.401 0 243.901 0c-81.101 0-165.3 43.5-165.3 326.4 0 282.901-22.3 463.2-66.9 514.901 0 0 115.6-18.301 165.7-122.701 0 0 .5 85.1-22.8 122.701 0 0 56.3-33.801 102.6-74.301-11-24.301-19.9-51-26.5-79.699-9.7-41.801-14.6-88-14.6-137.301 0-47.699 9.1-89.9 27.2-125.5 15.3-30.2 37-55.601 64.5-75.4 18.5-13.3 38.8-23.6 60.601-30.5a216.907 216.907 0 0 1 65.5-10.1c22.3 0 44.3 3.4 65.5 10.1 21.699 6.9 42.1 17.1 60.5 30.4 27.5 19.8 49.3 45.1 64.699 75.399 18.101 35.6 27.301 77.799 27.301 125.6 0 49.301-4.9 95.4-14.5 137.301-6.601 28.699-15.5 55.5-26.4 79.799 46.4 40.5 102.8 74.201 102.8 74.201-23.399-37.5-22.899-122.701-22.899-122.701C741.1 823 856.6 841.301 856.6 841.301c-44.6-51.701-67-232.102-67-514.901C789.6 43.6 705.401 0 624.3 0c-57.8 0-83.8 25.8-93.899 40.6 29.399 16.1 51.5 40.2 64.8 70.9 3.8 8.9-.2 19.2-9.101 23-2.3 1-4.6 1.4-7 1.4-6.8 0-13.199-3.9-16.1-10.5-1-2.4-2.1-4.9-3.3-6.9-14.2-28-37.9-47.1-70.5-57.5-6.3-2-12.4-3.5-18.101-4.7H471h.1c-24.3-4.8-50.3-4.8-74.6 0-5.8 1.1-11.9 2.7-18.3 4.7-32.601 10.4-56.3 29.5-70.5 57.5-1.2 2-2.3 4.5-3.3 6.9-3.801 8.9-14.2 12.9-23 9.1-8.9-3.8-12.9-14.2-9.101-23C285.701 80.6 308 56.5 337.6 40.4zm223.5 182.2c19.4 0 35.101 15.7 35.101 35.1s-15.7 35.1-35.101 35.1c-19.399 0-35.1-15.7-35.1-35.1 0-19.3 15.701-35.1 35.1-35.1zm-256 0c19.4 0 35.101 15.7 35.101 35.1s-15.7 35.1-35.101 35.1c-19.399 0-35.1-15.7-35.1-35.1 0-19.3 15.701-35.1 35.1-35.1z"/></svg>